<svg version="1.2" baseProfile="tiny-ps" xmlns="http://www.w3.org/2000/svg" viewBox="0 0 1210 390" width="1210" height="390">
	<title>latest?cb=20210701042709-svg</title>
	<style>
		tspan { white-space:pre }
		.shp0 { fill: #000000 } 
	</style>
	<g id="Layer">
		<path id="Layer" fill-rule="evenodd" class="shp0" d="M173.75 326.22C166.88 324.04 161.71 320.8 158.9 318.84L153.67 378.95C153.5 381.18 151.67 382.89 149.41 382.89L9.99 382.89C9.41 382.89 8.25 382.89 7.32 382.02C6.36 381.04 6.36 379.76 6.36 378.92L6.36 355.44C6.42 353.38 7.99 351.62 10.05 351.34C11.41 351.12 15.59 350.45 15.59 350.45C15.91 350.36 20.76 349.19 20.76 345.87C20.76 343.16 20.73 47.07 20.73 45.98C20.73 45.98 20.73 42.99 19.48 42.1C17.97 41.04 14.72 39.92 8.22 38.36L8.19 38.33C6.31 37.83 5 36.1 5 34.2L5 13.49C5 12.2 5.44 11 6.16 10.28C6.98 9.47 8.11 8.96 9.24 8.96L94.47 8.96C96.99 8.96 99.08 11.06 99.08 13.6L99.08 34.98C99.05 37.08 97.57 38.89 95.48 39.23L95.28 39.28C92.26 39.76 86.66 40.65 85.1 42.05C84.57 42.61 84.28 43.25 84.17 44.08L84.17 342.38C100.22 342.27 108.26 340.09 112.67 334.68C117.28 329.01 118.18 319.32 119.63 304.66C120.59 294.17 121.84 281.13 124.86 264.97C125.06 261.39 130.25 261.22 130.25 261.22L130.22 45.65C130.14 43.61 130.08 42.91 128.95 42.1C127.47 41.01 124.19 39.92 117.72 38.36L117.69 38.36L117.69 38.33C115.83 37.83 114.53 36.1 114.53 34.2L114.53 13.51C114.53 12.23 114.93 11.03 115.66 10.31C116.47 9.47 117.6 8.99 118.73 8.99L200.8 8.99C201.96 8.99 203.1 9.47 203.91 10.31C204.6 11.03 205.07 12.23 205.07 13.51L205.07 34.2C205.07 36.1 203.76 37.83 201.88 38.33L201.85 38.36C195.35 39.92 192.1 41.01 190.59 42.1C189.49 42.91 189.4 43.61 189.34 45.65C189.34 45.65 189.34 49.3 189.34 54.5C189.25 217.23 189.25 253.32 189.25 254.92L189.25 254.94C189.11 263.46 191.23 270.05 195.61 274.49C200.63 279.65 206.81 280.18 209.25 280.18C215.43 280.18 220.57 278.12 224.54 274.04C227.82 270.69 229.91 266.28 231.01 262.09C234.35 250.03 231.01 47.29 231.01 47.29C230.4 43.66 228.17 39.78 218.85 38.39L218.8 38.36L218.71 38.33C216.82 37.83 215.52 36.1 215.52 34.2L215.52 13.51C215.52 12.23 215.95 11.03 216.71 10.31C217.52 9.47 218.62 8.99 219.75 8.99L282.9 8.99C284.06 8.99 285.17 9.47 285.98 10.31C286.73 11.03 287.17 12.23 287.17 13.51L287.17 31.33C287.17 33.28 286.07 35.52 284.21 36.02C284.21 36.02 274.78 39.81 272.69 42.1C271.76 43.11 271.44 45.98 271.44 45.98C271.44 48.58 271.41 223.87 270.34 250.9C269.76 265.64 266.77 278.06 261.31 288.98C252.52 306.37 237.51 318.79 216.79 325.8C211.95 327.47 204.2 329.4 194.59 329.4C187.48 329.4 180.49 328.34 173.75 326.22ZM154.25 270.16C153.5 269.35 152.42 268.87 151.29 268.87L135.53 268.85C133.53 268.85 131.82 270.33 131.56 272.33C131.5 272.84 124.77 323.43 124.3 325.6C123.67 328.98 122.16 332.5 121.63 333.67L121.46 334.06C120.04 337.47 117.48 340.68 113.86 343.58C106.02 349.97 98.74 350.17 97.92 350.17C94.56 350.17 75.58 350.14 75.58 350.14L75.61 231.69C75.61 145.7 75.64 44.67 75.64 44.31C75.66 43.83 76.62 39.62 79.9 36.55C82.63 33.95 87.65 32.95 88.2 32.81C90.15 32.5 91.54 30.85 91.54 28.87L91.54 20.77C91.54 18.57 89.74 16.78 87.53 16.78L16.52 16.78C15.48 16.78 14.43 17.2 13.68 17.95C12.92 18.71 12.52 19.68 12.52 20.77C12.52 20.77 12.55 24.65 12.55 26.97L12.55 28.65C12.55 30.49 13.71 32 15.42 32.47L16.46 32.75C18.76 33.36 22.21 34.29 24.88 37.3C27.98 40.82 28.28 45.14 28.3 45.62L28.92 341.6C28.94 342.72 28.65 348.8 26.88 351.37C23.11 356.87 18.24 357.82 17.28 357.96C15.25 358.18 13.71 359.89 13.71 361.92L13.68 371.67C13.68 375.74 16.61 375.66 17.66 375.66L142.73 375.32C144.79 375.32 146.54 373.73 146.74 371.67L155.27 273.2C155.39 272.08 155.01 270.97 154.25 270.16ZM177.93 319.99C183.82 321.78 189.95 322.7 196.13 322.7C207.48 322.7 218.74 319.6 229.59 313.51C245.26 304.77 256.2 288.97 261.22 267.76C263.6 257.76 264.15 248.86 264.21 243.16C264.21 242.47 263.98 122.08 263.83 50.36L263.83 45.82C263.95 44.67 264.68 39.39 267.84 36.99C271.81 33.98 276.69 32.67 276.78 32.67C278.52 32.19 279.77 30.6 279.77 28.78L279.77 20.86C279.77 18.68 277.97 16.86 275.79 16.86L226.86 16.86C224.66 16.86 222.86 18.68 222.86 20.86L222.86 28.78C222.86 30.6 224.11 32.19 225.85 32.66C225.91 32.66 231.13 33.98 235.05 36.99C238.04 39.25 238.85 44.08 239.02 45.48L239.02 45.5C239.26 107.51 239.52 247.15 239.46 252.93C239.37 263.48 236.24 272.33 230.4 278.48C224.4 284.81 217.32 288.02 209.36 288.02L209.16 288.02C202.84 288 195.09 284.7 189.43 279.68C184.12 274.9 181.71 264.07 181.68 260.75L180.98 45.45C181.3 43.11 182.09 39.84 183.83 37.49C186.79 33.59 192.42 32.81 193.05 32.75C195.11 32.55 196.68 30.85 196.68 28.76L196.68 20.55C196.68 18.34 194.88 16.56 192.68 16.56L124.91 16.56C122.71 16.56 120.94 18.34 120.94 20.55L120.94 28.37C120.94 30.43 122.48 32.16 124.57 32.36C125.06 32.41 129.5 33.03 133.3 36.57C136.49 39.56 136.93 45.09 136.99 47.35L136.99 263.52L141.92 263.52L141.89 47.32L141.89 46.65L141.86 46.65C141.72 42.97 140.85 36.88 136.61 32.97C132.46 29.06 127.85 27.86 125.9 27.53L125.9 21.55L191.69 21.55L191.69 27.89C189.52 28.28 183.51 29.68 179.85 34.51C177.39 37.83 176.37 42.16 175.99 45.26L175.99 45.34L176.72 260.78C176.75 263.9 179.04 277.08 186.09 283.39C192.74 289.28 201.56 292.99 209.13 293.02L209.34 293.02C215.78 293.02 225.33 291.1 234.03 281.91C240.85 274.74 244.34 264.99 244.42 252.99C244.48 247.07 244.22 107.21 244.02 45.34L244.02 45.26C243.81 43.3 242.77 36.6 238.07 33.03C234.26 30.13 229.74 28.59 227.85 28.03L227.85 21.83L274.78 21.83L274.78 28.03C272.95 28.59 268.62 30.13 264.85 33.03C259.42 37.13 258.87 45.4 258.87 45.73L258.87 45.79L259.16 238.55L259.16 238.58C259.16 238.69 259.86 251.59 256.26 266.61C252.95 280.46 245.2 299.08 227.15 309.13C216.97 314.85 206.58 317.76 196.28 317.76C190.7 317.76 185.04 316.89 179.5 315.24C168.24 311.81 160.46 305.36 159.59 304.64L158.14 303.41L157.65 309.58L158.09 309.88C160.61 311.87 167.6 316.81 177.93 319.99Z" />
		<path id="Layer" fill-rule="evenodd" class="shp0" d="M1205 378.7C1205 379.85 1204.54 380.93 1203.75 381.77C1202.94 382.55 1201.84 383.06 1200.68 383.06L1114.43 383.06C1112.05 383.06 1110.1 381.1 1110.1 378.7L1110.13 355.95C1110.16 353.8 1111.7 352.01 1113.82 351.68C1118.32 350.98 1119.59 350.81 1119.97 350.76C1120.61 350.64 1124.06 349.69 1124.73 347.71C1124.99 346.74 1125.42 344.14 1125.51 341.54C1125.51 339.48 1125.63 205.11 1125.66 150.39C1116.54 193.92 1094.32 300.39 1094.32 300.39C1094.32 300.39 1093.56 302.77 1092.43 303.83C1091.21 304.97 1089.7 305.17 1089.53 305.2C1089.53 305.2 1081.84 305.22 1081.69 305.22C1080.56 305.22 1079.02 305 1078.18 304C1077.25 302.93 1076.7 300.67 1076.61 300.23C1076.35 299.05 1053.51 194.11 1044.14 150.81C1044.08 196.18 1043.99 277.89 1043.99 286.02C1043.99 294.11 1056.99 298.02 1056.99 298.02C1058.62 298.72 1059.66 300.28 1059.66 302.04L1059.61 327.5C1059.61 328.98 1058.91 330.4 1057.63 331.16C1055.81 332.22 1054.79 331.69 1054.79 331.69C1018.51 313.29 961.66 287.47 896.8 268.74C892.3 267.42 887.6 266.11 882.44 264.69L882.2 264.58C881.83 264.41 881.54 264.13 881.28 263.79C880.99 263.96 880.67 264.05 880.32 264.05C880.26 264.05 796.36 244.89 796.36 244.89C795.14 244.06 794.42 242.72 794.42 241.29L794.48 220.16C794.5 218.01 796.13 216.19 798.22 215.89L804.49 215.05C809.48 214.24 809.57 207.82 809.57 207.82C809.57 207.71 809.42 46.4 809.39 44.64L809.39 44.42C809.24 40.23 801.73 38.25 801.56 38.17L801.56 77.78C801.56 80.18 799.58 82.11 797.2 82.11L766.76 82.11C764.38 82.11 762.44 80.18 762.44 77.78L762.44 57.91C762.38 57.43 762.23 56.28 761.74 55.2C761.39 54.36 760.03 52.69 759.45 52.18C758.57 51.43 757.12 50.53 756.34 50.28C754.57 49.7 752.6 49.5 751.84 49.47L739.39 49.47C739.42 56.2 739.48 86.77 739.48 101.32L747.29 101.32C750.36 100.98 751.29 95.82 751.29 95.82L752.19 89.62C752.48 87.52 754.34 85.9 756.49 85.9L783.47 85.9C785.85 85.9 787.83 87.86 787.83 90.23L787.83 151.48C787.83 153.85 785.85 155.81 783.47 155.81L757.15 155.81C755.12 155.81 753.35 154.36 752.94 152.35C752.16 148.61 751.09 139.62 747.32 139.78C746.76 139.78 742.76 139.78 739.65 139.78C739.65 139.78 739.83 198.08 739.83 199.75C740.2 204.75 752.1 206.26 752.1 206.26C754.25 206.59 755.79 208.38 755.79 210.56L755.79 233.53C755.79 234.76 755.24 235.9 754.37 236.77C753.15 238 751.64 237.86 751.64 237.86C727.06 234.51 703.58 232.22 679.38 230.91L678.1 230.82L673.54 230.32C671.31 230.07 669.63 228.23 669.63 225.99L669.65 204.11C669.65 202.01 671.19 200.2 673.25 199.86C673.25 199.86 683.41 199.08 684.22 192.07L683.93 45.62C683.85 43.53 683.67 42.99 682.69 42.1C680.31 39.87 671.11 38.22 670.93 38.17L671.02 83.89C671.02 86.27 669.04 88.19 666.67 88.19L637.44 88.19C635.09 88.19 633.15 86.27 633.15 83.87C633.15 83.28 633.17 68.65 633.17 67.34C632.8 55.17 630.07 47.04 618.37 47.04C609.78 47.04 609.09 54.72 609.03 55.73L609.03 78.65C609 81.47 609.99 84.68 617.42 89.2C648.06 108.3 648.12 108.32 648.12 108.32C648.12 108.32 653.49 112.04 657.55 116.11C661.79 120.41 664.52 125.27 665.24 126.67C666.78 129.6 668.84 134.37 669.86 139.01C671.1 144.62 671.13 149.7 671.13 150.26C671.13 150.26 671.1 185.54 671.1 186.32C671.1 187.94 669.94 201.99 660.43 212.76C654.88 219.02 648.93 223.62 642.69 226.44C639.82 227.75 637.04 228.76 634.22 229.49C629.66 230.66 624.79 231.19 618.87 231.19C613.9 231.19 608.8 230.68 604.01 229.74C600.44 229.01 597.13 228.12 594.23 226.97C593.42 226.66 592.52 226.28 591.47 225.77C591.47 226.25 591.47 226.58 591.47 226.61C591.44 229.85 589.27 230.18 589.27 230.18C580.27 230.55 558.88 231.63 558.88 231.63C558.33 231.63 557.75 231.38 557 230.99C556.59 231.33 556.04 231.58 555.4 231.63C555.4 231.63 505.46 237.02 485.72 240.15L485.52 240.18C484.47 240.15 483.46 239.79 482.65 239.06C481.78 238.23 481.22 237.05 481.22 235.85L481.22 218.71L481.28 213.52C481.02 210.25 484.71 208.74 487.52 208.27C492.11 207.46 491.47 202.1 491.47 202.1C491.24 200.79 487.2 177.61 486.07 171.19L462.82 171.19C462.82 171.19 456.96 208.66 456.32 212.79C456.61 212.82 464.65 212.62 464.68 212.62C465.81 212.62 466.86 213.04 467.67 213.85C468.51 214.63 468.98 215.78 468.98 216.95L468.98 239.45C468.98 241.12 468.08 242.61 466.57 243.3C466.57 243.3 411.69 254.89 411.49 254.89C409.31 254.89 406.18 253.27 405.86 249.7L405.86 240.48C402.58 246.18 396.57 254.44 386.85 261.26C375.65 269.13 362.18 273.23 346.89 273.4C346.77 273.4 345.17 273.43 344.83 273.43C326.25 273.43 311.11 268.21 301.04 258.41C291.89 249.53 287.02 237.19 286.96 222.76L286.99 222.59L286.96 51.4C286.93 50.65 286.18 41.52 291.14 33.11C299.38 19.13 315.23 11.37 315.23 11.37C317 10.5 329.07 5.03 343.06 5.03C344.62 5.03 346.19 5.11 347.73 5.25C355.13 5.95 363.81 8.07 371.58 11.11L371.61 11.11C371.61 11.11 372.89 8.99 375.36 8.99L408.3 8.99C410.73 8.99 412.76 10.95 412.79 13.32L412.79 97.41C412.79 98.58 412.36 99.67 411.52 100.51C410.7 101.29 409.57 101.76 408.44 101.76L375.91 101.76C373.53 101.76 371.61 99.81 371.61 97.44L371.61 67.34C371.09 53.6 367.99 44.53 354.7 44.53C350.43 44.53 347.32 46.15 345.53 49.42C344.16 51.79 343.96 54.25 343.96 54.53C343.96 54.53 343.87 209.69 343.9 212.17L343.9 212.2C343.78 217.62 345.15 221.78 347.93 224.62C351.21 228 355.36 228.37 356.96 228.37C361.11 228.37 364.56 227 367.17 224.32C370.54 220.86 371.96 215.75 371.87 212.17L371.87 154.08C371.87 152.9 372.34 151.82 373.15 150.98C373.96 150.17 375.07 149.72 376.2 149.72L408.9 149.72C411.31 149.72 413.23 151.68 413.23 154.05L413.23 210.52C413.2 210.8 413.08 216.78 412.3 222.39C414.68 220.85 416.16 217.17 416.16 217.17C416.39 216.64 417.38 213.06 418.07 209.18L443.35 45.79C443.53 44.08 443.06 43.02 442.45 41.93C440.8 39.11 431.6 38.33 431.6 38.33C429.74 37.83 428.43 36.12 428.43 34.17L428.43 13.51C428.43 12.26 428.87 11 429.59 10.27C430.38 9.47 431.51 9.02 432.67 9.02L536.68 9.02C539.06 9.02 541.01 10.94 541.01 13.32L540.98 36.6C540.98 37.77 540.45 38.92 539.58 39.75C538.8 40.48 537.76 40.93 536.65 40.93C536.57 40.93 528.53 40.9 528.32 40.9C527.57 40.9 525.62 41.04 524.52 42.35C523.65 43.41 523.39 45.03 523.8 47.27C524.2 49.81 546.46 186.54 547.83 194.92C549.31 200.48 553.98 200.92 553.98 200.92L554.09 147.27C554.09 144.86 556.04 142.91 558.42 142.91L586.63 142.91C589.01 142.91 590.95 144.86 590.95 147.24C590.95 147.52 590.92 173.54 590.92 176.3L590.92 176.33C590.84 180.91 592 184.45 594.35 186.85C597.13 189.67 600.62 190.01 601.98 190.01C605.49 190.01 608.36 188.83 610.6 186.57C613.44 183.64 614.63 179.34 614.58 176.33L614.58 176.3C614.58 169.99 614.6 157.93 614.6 157.65C614.6 156.87 614.43 154.66 614.03 153.18C613.97 153.13 613.82 152.76 613.18 151.82L613.1 151.7L611.67 150.25C609.82 148.97 607.12 147.1 606.89 146.93C606.33 146.57 576.99 127.92 575.72 127.11L575.69 127.08L575.6 127.05L575.34 126.89C574.5 126.27 571.45 124.09 568.35 121.02C565.1 117.84 561.82 113.62 559.99 110.25C559.21 108.85 556.62 103.8 555.4 98.19C554.19 92.66 554.13 87.66 554.13 86.71L554.16 44.5L554.16 44.36C554.27 42.8 555.55 28.59 566.61 18.85C570.84 15.11 575.14 11.56 581.2 9.13C589.33 5.87 598.47 5 602.16 5L602.42 5C603.2 5.03 610.2 5.2 617.33 6.7C622.01 7.71 632.74 12.09 632.8 12.12C633.3 10.31 634.92 8.99 636.84 8.99L666.61 8.99C667.72 8.99 668.76 9.44 669.54 10.19C670.36 9.44 671.43 9.02 672.53 9.02L797.21 8.99C798.34 8.99 799.38 9.41 800.2 10.19C801.01 9.41 802.05 8.99 803.18 8.99L873.71 9.02C874.86 9.02 875.97 9.47 876.78 10.28C877.51 11 877.97 12.26 877.97 13.51L877.97 34.17C877.97 37.3 873.62 39.28 873.3 39.45C869.03 41.77 867.7 42.83 867.58 45.98L867.61 220.44C867.14 229.54 880.17 231.19 880.17 231.19C883.6 232.05 883.31 236.1 883.31 236.1C883.8 235.9 884.32 235.76 884.85 235.74L891.58 235.23C895.26 234.82 895.79 231.3 895.82 230.82L895.79 45.93C895.73 43.86 893.87 40.29 884.9 38.61L884.88 38.61C883.02 38.08 881.71 36.38 881.71 34.43L881.71 13.51C881.71 12.2 882.12 11 882.87 10.28C883.66 9.44 884.79 8.99 885.92 8.99L965.49 9.02C966.65 9.02 967.79 9.47 968.6 10.28C969.29 11 969.76 12.26 969.76 13.51L969.76 34.18C969.76 36.13 968.45 37.83 966.57 38.34L966.54 38.34L966.54 38.36C960.18 39.93 957.02 40.99 955.51 42.05C954.44 42.8 954.38 43.44 954.32 45.43C954.32 45.62 954.32 45.79 954.29 45.98C954.29 48.97 954.38 231.75 954.41 246.29C957.2 247.41 959.78 247.97 962.1 247.97C964.22 247.97 965.32 247.46 965.32 247.46L965.38 247.44L965.44 247.44C969.33 245.98 971.21 241.01 971.42 240.4C971.82 238.95 985.06 192.33 985.2 191.85C985.72 190.01 987.44 188.73 989.38 188.73L1004.96 188.75C1004.96 174.4 1004.9 48.24 1004.9 45.96L1004.88 45.65C1004.82 43.58 1004.76 42.88 1003.63 42.1C1002.15 41.01 998.87 39.92 992.4 38.33L992.37 38.33C990.51 37.83 989.21 36.13 989.21 34.17L989.21 13.51C989.21 12.2 989.61 11 990.34 10.28C991.15 9.44 992.28 8.99 993.41 8.99L1061.55 8.99C1063.58 8.99 1065.35 10.44 1065.76 12.45C1065.99 13.38 1084.48 101.71 1090.98 132.61C1097.45 101.43 1115.88 12.45 1115.88 12.45C1116.29 10.44 1118.09 8.99 1120.12 8.99L1200.27 9.02C1201.4 9.02 1202.53 9.47 1203.32 10.28C1204.07 11 1204.48 12.26 1204.48 13.51L1204.48 34.17C1204.48 36.13 1203.17 37.83 1201.31 38.33L1201.29 38.36C1188.31 41.52 1188.26 42.38 1188.14 45.98L1188.29 345.53C1188.29 349.78 1194.64 350.36 1194.64 350.36L1201 351.12C1203.14 351.34 1204.83 353.18 1204.83 355.39C1205 378.7 1205 378.7 1205 378.7ZM1197.6 371.67C1197.6 371.67 1197.6 371.67 1197.54 362.09C1197.51 360.08 1196 358.38 1193.97 358.16C1193.94 358.16 1191.77 357.91 1189.7 357.18C1187.79 356.51 1185.87 355.33 1185.35 354.78C1184.57 354.02 1182.71 351.88 1181.98 350.31C1181 348.1 1180.94 346.07 1180.94 346.04C1180.94 343.75 1180.79 50.76 1180.79 46.43C1180.82 46.01 1180.97 43.98 1181.69 42.08C1182.3 40.43 1183.64 38.7 1184.57 37.78C1185.41 36.94 1187.06 35.74 1188.89 34.93C1191.07 33.95 1193.33 33.39 1193.97 33.23C1195.8 32.86 1197.13 31.19 1197.13 29.32L1197.13 20.55C1197.13 18.35 1195.34 16.53 1193.13 16.53L1126.24 16.53C1124.38 16.53 1122.7 17.87 1122.32 19.74C1122.17 20.55 1096.08 146.65 1093.76 157.93C1092.31 157.9 1090.1 157.88 1088.71 157.88C1088.42 156.34 1085.35 141.71 1059.78 19.82C1059.37 17.95 1057.75 16.61 1055.83 16.61L1000.69 16.61C999.59 16.61 998.57 17.06 997.82 17.81C997.07 18.6 996.66 19.66 996.69 20.72L996.81 29.51C996.86 31.47 998.26 33.08 1000.14 33.39C1000.17 33.39 1002.67 33.87 1004.96 34.96C1007.05 35.88 1008.94 37.55 1009.75 38.42C1010.62 39.42 1011.78 41.43 1012.3 43.36C1012.79 45.14 1012.74 47.04 1012.74 47.38C1012.68 47.46 1012.74 72.28 1012.82 255.53L1012.82 268.51C1012.85 268.82 1012.82 270.44 1012.24 272.03C1011.66 273.6 1010.27 275.36 1009.46 276.11C1008.65 276.89 1007.05 277.95 1005.37 278.62C1004.35 279.01 1002.58 279.6 1000.03 280.1C999.97 280.13 999.91 280.13 999.88 280.13C998.03 280.49 996.66 282.14 996.66 284.09L996.66 294.59C996.66 296.15 997.59 297.6 999.04 298.27L1020.49 307.82L1046.63 319.99C1047.13 320.22 1047.74 320.36 1048.29 320.36C1049.07 320.36 1049.83 320.13 1050.46 319.74C1051.62 318.99 1052.29 317.73 1052.29 316.36L1052.29 307.1C1052.29 305.5 1051.36 304.02 1049.83 303.41C1049.8 303.38 1047.3 302.35 1044.98 300.9C1043.06 299.7 1041.29 298.19 1040.68 297.38C1039.87 296.29 1038.3 293.92 1037.61 291.8C1036.74 289.14 1036.65 286.55 1036.65 286.44L1036.83 107.43L1042.69 107.43C1046.05 123.26 1081.52 287.69 1081.69 288.56C1082.18 291.15 1082.94 295.45 1085.52 295.54C1087.79 295.54 1088.8 292.05 1089.56 288.28C1089.9 286.58 1124.47 120.25 1127.17 107.35C1128.91 107.38 1131.69 107.4 1133.46 107.4C1133.46 128.09 1133.32 341.66 1133.32 341.8C1133.2 346.04 1132.54 349.64 1131.52 351.87C1130.48 354.27 1128.59 355.59 1126.93 356.59C1124.64 357.93 1121.65 358.41 1121.33 358.46C1119.39 358.74 1117.91 360.47 1117.91 362.45L1117.91 371.67C1117.91 373.87 1119.71 375.69 1121.91 375.69L1193.62 375.69C1194.67 375.69 1195.69 375.24 1196.44 374.51C1197.17 373.73 1197.6 372.73 1197.6 371.67ZM993.41 290.51L1008.47 201.26C1008.65 200.06 1008.33 198.89 1007.57 198C1006.85 197.1 1005.74 196.57 1004.55 196.57C1004.55 196.57 997.42 196.54 995.06 196.54C992.28 196.54 991.32 198.95 991.29 199.06L991.29 199.08L991.26 199.11C991.15 199.53 979.8 239.79 979.42 241.13C978.99 242.3 975.45 251.73 968.05 254.5L967.87 254.58C967.84 254.58 965.75 255.53 961.69 255.53C957.31 255.53 952.38 254.44 947.07 252.35C947.07 248.91 947.07 226.08 947.07 198.22C947.04 152.01 947.04 74.71 947.01 45.15C947.04 44.95 947.21 43 948.2 40.96C948.89 39.59 950.93 35.51 959.78 32.83C961.34 32.33 962.45 30.8 962.45 29.07L962.45 20.69C962.45 18.46 960.65 16.64 958.44 16.64L891.69 16.64C889.52 16.64 887.78 18.37 887.69 20.52L887.89 29.04C887.83 30.77 888.97 32.39 890.62 32.97C894.31 34.2 899.04 36.43 900.28 37.91C901.16 38.95 902.26 40.76 902.78 42.52C903.59 45.28 903.62 48.19 903.62 48.22L903.62 231.27C903.56 231.97 903.39 234.48 902.78 236.57C902.32 238.14 901.44 239.31 900.78 240.04C900.31 240.54 899.01 241.52 897.18 242.1C895.84 242.55 894.16 242.88 892.39 243.02L892.33 243.05C890.27 243.19 888.62 244.95 888.62 247.04L888.62 256.37C888.62 258.15 889.75 259.69 891.49 260.22L891.61 260.25C895.93 261.59 918.42 268.43 934.27 273.79C951.39 279.59 987.72 293.5 988.04 293.61C988.51 293.78 992.51 294.47 993.41 290.51ZM875.82 250.62L875.76 240.84C875.76 239.06 874.54 237.5 872.83 236.99C872.77 236.99 862.36 232.25 860.85 225.74C860.21 223.2 860.03 220.55 860.03 220.44C860.03 220.44 859.97 51.18 859.97 47.21C860.03 46.88 860.3 44.25 861.02 41.8C861.4 40.46 862.18 39 862.62 38.42C863.23 37.64 864.91 35.96 866.48 34.82L869.03 33.28C870.1 32.67 871.26 31.24 871.26 29.71L871.26 20.63C871.26 19.57 870.86 18.54 870.1 17.79C869.35 17.06 868.33 16.61 867.26 16.61L809.33 16.78C807.13 16.78 805.36 18.6 805.36 20.8L805.36 29.31C805.36 30.88 806.52 32.27 807.59 32.92L810.81 34.82C812.15 35.76 813.31 36.83 813.69 37.3L813.75 37.41C814.33 38.17 815.46 39.62 816.04 41.12C816.65 42.72 816.91 44.7 816.97 45.45L816.97 45.48C816.97 48.66 817.11 156.09 817.14 196.65L817.17 207.82C817.17 207.82 817.14 210.19 816.59 212.45C816.07 214.6 815.02 216.61 814.67 217.09C813.89 218.07 812.09 220.05 810.18 221.08C808.32 222.09 806.14 222.48 805.47 222.56C803.53 222.81 801.99 224.54 801.99 226.52L801.99 235.46C801.99 237.3 803.33 238.98 805.16 239.34C805.74 239.48 862.99 252.54 868.74 253.97C869.35 254.13 871.32 254.61 871.82 254.61C872.69 254.61 873.56 254.33 874.28 253.77C875.24 253.02 875.82 251.87 875.82 250.62ZM793.98 70.49L793.98 20.63C793.98 18.4 792.15 16.61 789.98 16.61L679.82 16.61C678.74 16.61 677.73 17.03 676.97 17.79C676.22 18.54 675.81 19.57 675.81 20.63L675.84 29.26C675.84 31.19 677.23 32.86 679.12 33.2C679.15 33.2 681.44 33.62 683.59 34.62C685.53 35.54 687.36 36.99 688 37.72C688.46 38.17 689.91 39.81 690.52 41.57C691.34 43.83 691.45 46.46 691.45 46.49C691.45 46.49 691.8 190.04 691.8 192.3C691.77 192.75 691.66 194.92 691.07 196.99C690.52 198.8 689.42 200.67 688.84 201.34C688.15 202.18 686.32 203.86 684.43 204.78C682.25 205.89 679.79 206.28 679.79 206.28C677.81 206.65 676.42 208.3 676.42 210.28L676.42 219.38C676.42 221.47 677.96 223.2 680.02 223.4L680.37 223.43C686.95 224.04 703.38 225.6 712.73 226.19C716.85 226.47 719.6 226.78 734.87 228.45L743.78 229.43C743.92 229.46 744.07 229.46 744.21 229.46C745.2 229.46 746.16 229.12 746.88 228.42C747.75 227.67 748.22 226.58 748.22 225.44L748.22 216.81C748.22 214.83 746.74 213.1 744.74 212.84C744.74 212.84 743.02 212.59 741.22 211.81C739.16 210.92 736.84 209.33 736.12 208.6C735.27 207.76 733.79 205.81 733.21 204.3C732.37 202.24 732.29 200.2 732.29 200.11C732.29 200.11 732.11 143.47 732.05 132.19L747.38 132.16C752.22 132.16 756.87 138.33 757.68 140.32C758.49 142.3 759.04 144.5 759.13 144.92L759.16 144.98L759.16 145.03C759.54 146.9 761.16 148.24 763.08 148.24L776.25 148.24C778.43 148.24 780.26 146.43 780.26 144.22L780.26 97.49C780.26 95.29 778.43 93.5 776.25 93.5L762.76 93.5C760.76 93.5 759.07 95.01 758.78 96.99C758.78 97.02 758.49 98.94 757.68 100.84C756.86 102.68 755.39 104.72 754.78 105.36C754.31 105.84 752.86 107.38 751.32 108.07C749.93 108.69 748.25 108.88 747.84 108.94L731.94 108.91C731.91 100.62 731.82 49.64 731.82 41.85L751.87 41.85C751.87 41.85 755.41 41.96 758.72 43.08C761.01 43.83 763.37 45.54 764.41 46.43C765.6 47.46 767.72 49.92 768.68 52.1C769.72 54.5 769.95 56.87 770.04 57.57L769.98 70.49C769.98 72.73 771.81 74.54 774.02 74.54L789.98 74.54C792.15 74.54 793.98 72.73 793.98 70.49ZM663.42 20.69C663.42 18.46 661.65 16.64 659.41 16.64L644.18 16.64C641.97 16.64 640.17 18.46 640.17 20.69L640.17 25.41C637.27 23.32 632.8 20.24 629.46 18.68C624.5 16.36 619.92 14.58 615.77 13.85C605.52 12.01 602.16 12.34 602.16 12.34C599.57 12.34 591.33 12.96 584.02 15.92C579.06 17.87 575.46 20.86 571.6 24.26C562.72 32.11 561.73 44.14 561.7 44.67L561.7 86.69C561.7 86.88 561.7 91.57 562.8 96.54C563.62 100.25 565.3 104.19 566.63 106.62C568.14 109.38 570.9 112.93 573.63 115.61C576.33 118.29 579.08 120.24 579.64 120.6C579.75 120.69 609.67 139.73 610.98 140.54C611.73 141.01 614.34 142.66 616.43 144.36C617.91 145.56 618.93 146.79 619.28 147.32L619.45 147.54C619.95 148.3 620.93 149.72 621.31 151.15C622.09 153.97 622.18 157.43 622.18 157.46L622.18 176.33C622.18 176.89 622.18 181.63 621.02 185.74C620.53 187.63 619.42 189.34 618.58 190.34C616.2 193.11 613.71 195.09 611.39 196.06C608.17 197.43 602.16 197.51 602.1 197.51C600.15 197.51 598.53 197.32 597.08 196.82C594.26 195.95 591.01 193.8 588.63 191.26C587.04 189.53 585.44 186.68 584.63 184.03C583.64 180.82 583.58 178.03 583.58 178L583.44 154.49C583.44 152.29 581.61 150.53 579.46 150.53L565.53 150.53C563.33 150.53 561.53 152.32 561.53 154.52L561.53 219.4C561.53 220.49 561.93 221.5 562.69 222.25C563.47 223 564.46 223.45 565.53 223.45L579.81 223.45C580.89 223.45 581.93 222.98 582.66 222.25C583.38 221.47 583.79 220.49 583.79 219.43C583.79 219.38 583.73 215.69 583.67 212.95C586.87 214.85 592.79 218.26 596.99 219.88C602.97 222.22 611.13 223.59 618.88 223.59C625.96 223.59 632.17 222.89 639.57 219.57C644.79 217.17 649.9 213.18 654.74 207.73C662.7 198.72 663.51 186.38 663.57 185.85L663.57 150.25C663.57 150.2 663.57 145.56 662.46 140.62C661.59 136.74 659.79 132.61 658.55 130.24C657.3 127.84 654.98 124.29 652.16 121.44C648.59 117.84 644.62 115.1 644.18 114.83C644.04 114.74 629.47 105.64 620.73 100.2L613.45 95.68C609.88 93.33 606.16 90.4 605.53 89.48C604.89 88.58 603.23 86.24 602.51 84.26C601.58 81.58 601.49 78.87 601.49 78.84L601.49 54.58C601.49 54.55 601.52 51.65 602.94 48.61C603.61 47.15 604.97 45.4 606.68 43.83C609.64 41.04 614.4 39.17 618.47 39.17C622.91 39.17 631.29 41.88 635.24 47.69C636.84 50.03 638.49 52.46 639.25 54.75C640.9 60.05 640.76 65.3 640.73 66.31L640.73 76.64C640.73 78.81 642.53 80.63 644.7 80.63L659.42 80.63C661.65 80.63 663.42 78.81 663.42 76.64L663.42 20.69ZM552.59 210.94C552.59 209.41 551.43 207.82 549.83 207.15L547.05 206.03C545.57 205.25 544.32 204.25 543.91 203.74C543.51 203.3 542.4 202.04 541.76 200.7C541.45 199.95 540.92 198.66 540.46 196.76C540.46 196.74 540.46 196.71 540.43 196.68C540.26 195.48 515.94 44.08 515.94 44.08C515.94 42.86 515.97 41.6 516.95 39.31C517.33 38.47 518.29 37.38 519.77 36.13C520.41 35.57 522.44 34.26 524.53 33.75C525.95 33.36 529.35 33.34 529.43 33.34C530.45 33.34 531.44 32.97 532.16 32.25C532.97 31.52 533.44 30.43 533.44 29.34L533.44 20.55C533.44 18.37 531.64 16.56 529.43 16.56L439.96 16.56C437.78 16.56 436.01 18.37 435.99 20.52L435.93 28.87C435.9 30.82 437.29 32.47 439.18 32.86C439.5 32.92 442.22 33.45 444.66 34.79C446.23 35.68 447.62 37.13 448.32 38.19C449.16 39.53 450.15 41.79 450.41 43.83C450.79 46.82 450.21 49.67 450.21 49.7C450.18 49.83 426.93 201.48 425.57 210.39C424.96 213.79 423.68 219.24 422.9 220.6C422.14 222 420.81 224.29 419.33 226.02C417.38 228.31 415 230.18 414.98 230.24C414.02 230.99 413.47 232.13 413.47 233.36L413.47 240.73C413.47 241.93 413.99 243.08 414.92 243.83C415.61 244.42 416.54 244.75 417.47 244.75C417.73 244.75 417.96 244.73 418.22 244.67L458.21 236.69C460.07 236.32 461.41 234.65 461.41 232.78L461.41 224.49C461.41 223.4 460.97 222.34 460.19 221.58C459.46 220.86 458.45 220.47 457.4 220.47C457.4 220.47 455.14 220.44 453.8 220.1C452.27 219.71 450.7 218.57 450.23 218.18C447.94 216.33 448.67 212.73 448.67 212.73C448.7 212.51 451.6 193.92 453.75 180.38L454.01 178.56L456.36 163.63L492.43 163.63C493.1 167.34 494.64 176.27 496.06 184.42L498.06 195.84L498.7 199.47C498.7 199.47 499.31 203.35 499.31 205.03C499.31 205.39 499.28 205.75 499.28 206.12C499.16 207.57 498.58 209.1 498.23 209.77C497.94 210.3 496.58 212.06 495.24 213.04C493.5 214.32 491.62 214.94 491.59 214.97C489.93 215.5 488.8 217 488.8 218.76L488.8 227C488.8 228.15 489.29 229.23 490.14 229.96C490.86 230.63 491.82 230.99 492.81 230.99C492.95 230.99 549.02 224.96 549.02 224.96C551.05 224.74 552.59 223 552.59 221L552.59 210.94ZM405.66 210.52L405.66 161.31C405.66 159.1 403.86 157.29 401.66 157.29L383.46 157.29C382.39 157.29 381.43 157.73 380.65 158.46C379.89 159.24 379.49 160.25 379.49 161.34L379.6 211.81C379.6 212.01 379.6 216.42 378.38 220.58C377.34 224.15 375.16 227.39 374.03 228.56C372.08 230.54 368.92 233.08 365.79 234.28C361.46 235.9 356.01 235.99 355.98 235.99C354.82 235.99 352.52 235.87 350.17 235.12C347.68 234.28 344.78 232.27 343.18 230.74C341.41 229.01 339 225.8 337.87 222.95C336.71 220.05 336.39 217.17 336.33 216.33L336.45 59.05C336.45 51.48 339.03 45.34 343.91 41.32C345.88 39.7 350.81 36.91 356.76 36.91C360.85 36.91 364.68 38.22 368.22 40.79C378.27 48.22 379.17 63.91 379.19 64.58L379.19 90.18C379.19 92.38 380.96 94.17 383.17 94.17L401.22 94.17C402.24 94.17 403.28 93.75 404.04 92.99C404.79 92.24 405.2 91.21 405.2 90.15L405.23 20.83C405.23 18.62 403.43 16.81 401.25 16.81L382.56 16.81C380.36 16.81 378.53 18.62 378.53 20.86L378.53 22.67C375.31 20.94 372.06 19.43 368.86 18.15C361.75 15.39 353.77 13.46 347.04 12.82C345.7 12.68 344.34 12.62 342.98 12.62C330.06 12.62 318.74 18.07 318.28 18.32C310.62 21.58 301.45 29.82 297.82 36.66C294.11 43.67 293.61 50.09 293.55 51.31L293.55 222.39C293.55 222.45 293.35 231.61 296.83 240.2C299.71 247.21 305.77 253.02 309.11 255.87C313.29 259.38 321.94 262.87 330.61 264.55C335 265.41 339.55 265.83 344.05 265.83C344.89 265.83 347.59 265.8 347.59 265.8C356.64 265.8 363.14 264.27 367 262.98C374.66 260.44 382.36 255.64 389.93 248.69C394.49 244.53 400.29 236.74 402.99 228.78C406.04 219.94 405.66 210.89 405.66 210.52ZM1008.68 237.08C1008.44 234.03 1007.4 235.9 1007.25 237.22C1007.25 237.22 1001.94 264.24 1001.07 268.29C1000.17 272.36 1001.13 272.81 1001.94 272.81C1002.38 272.81 1004.33 272.64 1005.72 271.44C1006.88 270.41 1007.54 269.15 1007.6 267.76C1007.69 266.47 1008.91 240.17 1008.68 237.08Z" />
		<path id="Layer" class="shp0" d="M482.94 297.94C470.17 297.94 458.13 303.6 449.94 313.51L382.97 313.79C381.6 313.74 379.19 312.42 379.19 309.94C379.25 307.23 381.37 306.17 383.23 306.09C384.56 306.17 385.81 307.23 386.51 308.18C387.29 309.24 388.57 309.88 389.96 309.88C390.95 309.88 391.9 309.58 392.63 308.96C394.52 307.51 394.28 304.44 392.98 302.35C391.12 299.44 387.38 297.68 382.97 297.6L382.79 297.6C379.89 297.6 376.67 299.03 374.4 301.31C372.78 302.93 370.89 305.72 370.92 309.88C370.95 318.71 378.73 322.36 382.88 322.36C382.97 322.36 383.02 322.36 383.08 322.36C383.37 322.36 451.95 322.14 455.37 322.11L455.72 322.11L455.89 321.86C462.13 313.04 472.26 307.76 482.94 307.76C501.25 307.76 516.17 322.81 516.17 341.24C516.17 359.69 501.25 374.71 482.94 374.71C471.89 374.71 461.61 369.18 455.4 359.91L455.23 359.61L454.88 359.61L225.79 359.35C220.89 359.55 215.02 365.08 215.11 371.67C215.23 379.76 221.47 384.03 227.56 384.06L227.62 384.06C231.19 384.06 234.96 381.77 236.38 380.24C238.68 377.72 239 375.04 237.23 373.14L237.2 373.14L237.17 373.12C236.47 372.5 235.66 372.2 234.7 372.2C232.79 372.2 231.04 373.4 230.38 374.07C229.68 374.74 228.69 375.55 227.56 375.55C225.47 375.49 223.67 373.67 223.7 371.69C223.7 369.71 225.41 367.98 227.33 367.98C227.42 367.98 441.62 368.17 449.33 368.17C457.58 378.59 469.79 384.56 482.94 384.56C506.65 384.56 525.92 365.1 525.92 341.23C525.92 317.37 506.65 297.94 482.94 297.94Z" />
		<path id="Layer" class="shp0" d="M1029.78 359.35L800.66 359.61L800.31 359.61L800.11 359.89C793.93 369.15 783.62 374.71 772.57 374.71C754.25 374.71 739.37 359.69 739.37 341.24C739.37 322.78 754.25 307.79 772.57 307.79C783.27 307.79 793.37 313.04 799.61 321.86L799.82 322.14L800.14 322.14C803.59 322.14 876.26 322.36 876.55 322.36C876.58 322.36 876.63 322.36 876.69 322.36C880.84 322.36 888.65 318.71 888.68 309.88C888.71 305.72 886.79 302.93 885.2 301.29C882.9 299 879.68 297.57 876.78 297.57L876.63 297.57C872.19 297.66 868.45 299.44 866.62 302.32C865.32 304.44 865.08 307.48 866.94 308.99C867.7 309.55 868.65 309.86 869.61 309.86C871.01 309.86 872.31 309.24 873.07 308.21C873.79 307.23 875.04 306.14 876.37 306.06C878.2 306.17 880.35 307.23 880.38 309.94C880.41 312.45 877.97 313.76 876.61 313.79L805.62 313.51C797.38 303.6 785.36 297.91 772.57 297.91C748.89 297.91 729.59 317.37 729.59 341.23C729.59 365.13 748.89 384.53 772.57 384.53C785.74 384.53 797.96 378.59 806.2 368.15C813.92 368.15 1027.95 367.95 1027.95 367.95C1028 367.95 1028.09 367.95 1028.21 367.95C1030.12 367.95 1031.81 369.71 1031.84 371.69C1031.86 373.7 1030.07 375.49 1027.95 375.55C1026.82 375.55 1025.8 374.71 1025.16 374.04C1024.46 373.42 1022.72 372.19 1020.84 372.19C1019.91 372.19 1019.04 372.5 1018.34 373.14L1018.31 373.14L1018.31 373.17C1016.54 375.01 1016.83 377.72 1019.13 380.26C1020.58 381.8 1024.32 384.09 1027.89 384.09L1027.98 384.06C1034.07 384.03 1040.31 379.76 1040.4 371.67C1040.48 365.08 1034.68 359.55 1029.78 359.35Z" />
		<path id="Layer" class="shp0" d="M772.57 331.58C767.54 331.58 763.45 335.71 763.45 340.76C763.45 345.81 767.54 349.95 772.57 349.95C775.93 349.95 778.95 348.13 780.55 345.14L981.43 344.89C983.78 344.89 985.69 342.99 985.69 340.62C985.69 338.28 983.78 336.35 981.43 336.35L780.69 336.6C779.15 333.53 775.99 331.58 772.57 331.58Z" />
		<path id="Layer" class="shp0" d="M474.9 345.17C476.5 348.13 479.49 349.95 482.85 349.95C487.87 349.95 491.97 345.81 491.97 340.76C491.97 335.71 487.87 331.58 482.85 331.58C479.43 331.58 476.3 333.53 474.76 336.6L274.22 336.35C271.87 336.35 269.96 338.28 269.96 340.62C269.96 343 271.87 344.89 274.22 344.89L474.9 345.17Z" />
		<path id="Layer" class="shp0" d="M1097.51 365.83C1096.61 365.27 1008.42 311.67 896.19 279.29C805.97 253.21 716.21 240.01 629.41 240.01C566.64 240.01 488.08 243.97 381.28 273.03C266.65 304.27 171.46 360.08 167.49 362.45C164.7 364.07 163.8 367.62 165.4 370.38C165.4 370.38 166.62 372.61 168.94 373.03C170.65 373.42 173.26 372.39 173.26 372.39C177.27 370.05 271.18 314.99 384.3 284.17C489.79 255.44 567.42 251.56 629.41 251.56C715.13 251.56 803.82 264.63 893.03 290.4C1003.8 322.36 1090.61 375.16 1091.51 375.66C1094.2 377.3 1097.74 376.47 1099.4 373.73C1101.05 371.02 1100.21 367.48 1097.51 365.83Z" />
		<path id="Layer" class="shp0" d="M597.17 339.79L587.3 339.56C586.81 339.53 586.37 339.92 586.28 340.43L584.66 349.45C583.82 353.16 582.57 356.7 582.22 357.71C580.94 361.25 579.67 363.82 578.39 365.3C576.07 368.01 573.14 368.9 572.18 368.9C571.45 368.9 570.03 368.12 569.22 366.33C568.49 364.72 568.23 362.26 568.09 360.78C568.09 360.78 567.83 316.28 567.83 295.56C567.83 289.56 567.83 285.51 567.88 284.95L567.88 284.93C567.88 284.9 567.88 284.84 567.88 284.81C567.88 284.76 567.86 284.73 567.86 284.68L567.86 284.56C567.86 283.92 567.92 282.75 568.26 281.63C568.58 280.74 569.19 279.93 569.69 279.32C569.71 279.29 570.03 278.87 570.03 278.87C570.56 278.12 572.12 277.22 574.21 276.52C574.62 276.41 574.91 275.99 574.91 275.58L574.79 267.81C574.76 267.5 574.65 267.26 574.41 267.06C574.21 266.89 573.95 266.81 573.69 266.81L536.89 269.82C536.37 269.85 535.96 270.33 535.96 270.83L535.9 277.98C535.9 278.34 536.22 278.76 536.57 278.92L539.88 280.51C541.33 281.46 542.06 282.66 542.26 283C542.66 283.67 543.33 285.57 543.71 287.52C543.71 287.55 544.2 292.3 544.2 292.32C544.2 293.47 544.46 360.94 544.46 360.94C544.46 360.94 544.38 362.73 543.86 364.49C543.39 366.05 542.49 367.34 542.2 367.67C541.74 368.31 540.58 369.38 539.65 369.99L536.6 371.66C536.28 371.83 535.99 372.22 535.99 372.61L536.22 379.31C536.25 379.84 536.69 380.26 537.21 380.26L593.13 380.35C593.63 380.35 594.06 379.95 594.09 379.42L598.15 340.9C598.18 340.62 598.1 340.34 597.89 340.12C597.69 339.92 597.43 339.79 597.17 339.79Z" />
		<path id="Layer" class="shp0" d="M644.41 366.92C644.15 366.75 643.74 366.72 643.45 366.81L640.52 367.84C638.87 368.18 636.95 368.29 635.76 368.29C635.01 368.29 631.18 368.18 629.18 366.22C627.06 364.13 626.74 360.19 626.71 358.63C626.65 356.42 626.65 340.79 626.68 314.6L626.71 313.46C626.68 313.15 626.68 312.37 627.11 312.06C627.44 311.81 628.39 311.62 628.83 311.64C628.94 311.7 629.06 311.73 629.06 311.73C629.23 311.78 629.41 311.7 629.55 311.67C630.68 311.67 640.76 311.64 640.76 311.64C641.16 311.64 641.54 311.37 641.71 310.97C642.03 310.05 642.61 308.1 642.96 305.36L643.25 300.59L643.25 300.14C643.22 299.56 642.76 299.03 642.23 299.03L629.32 299.03C627.81 299.14 627.09 298.94 626.94 298.83C626.62 298.55 626.48 297.85 626.48 297.32L626.48 278.87C626.48 278.56 626.36 278.28 626.1 278.06C625.87 277.86 625.52 277.81 625.23 277.89L604.22 283.42C603.78 283.53 603.46 283.92 603.46 284.4L603.46 297.49C603.46 298.22 603.35 298.75 603.11 298.91C602.91 299.11 602.24 299.22 601.52 299.17L591.27 299.17C590.69 299.17 590.26 299.61 590.26 300.17L590.2 310.42C590.2 310.69 590.32 310.92 590.49 311.11C590.66 311.31 590.95 311.42 591.21 311.42L601.02 311.42C601.63 311.37 602.71 311.48 603.05 311.92C603.29 312.15 603.49 312.73 603.49 313.77L603.46 314.3L603.46 362.88C603.49 363.29 603.64 366.62 604.77 369.8C605.72 372.56 607.67 375.02 608.6 375.97C609.47 376.83 611.85 378.82 614.75 379.93C617.36 380.94 620.06 381.16 620.35 381.19C620.44 381.19 631.09 381.19 631.09 381.19C631.23 381.16 634.63 380.77 634.63 380.77C634.77 380.74 635.61 380.52 635.61 380.52C635.67 380.49 639.79 379.29 639.79 379.29C641.68 378.59 642.52 377.95 643.51 377.03C644.7 375.94 644.96 375.16 644.96 374.68L644.87 367.73C644.88 367.4 644.67 367.12 644.41 366.92Z" />
		<path id="Layer" fill-rule="evenodd" class="shp0" d="M721.87 372.12L721.87 379.46C721.87 380.05 721.4 380.49 720.85 380.49L694.06 380.49C693.31 380.49 691.65 380.21 690.46 379.12C688.99 377.78 687.97 375.75 687.77 375.35L686.81 375.35C686.17 375.88 683.12 378.17 680.74 379.37C675.23 382.17 666.35 381.22 666.35 381.22C663.04 381.13 657.79 379.07 654.02 375.33C649.89 371.22 649.66 365.53 649.66 365.47C649.66 365.47 649.6 318.65 649.6 318.68C649.6 318.57 649.58 308.38 656.22 302.69C661.5 298.16 671.37 297.13 672.94 297.13C674.27 297.13 677.96 297.49 680.98 298.47C682.89 299.11 684.52 300.03 685.53 300.56C685.53 300.56 686.69 301.12 686.95 301.23C687.36 301.23 687.83 301.06 688.06 300.73C688.35 300.34 688.49 299.56 688.52 299.05L688.52 287.41C688.49 287.47 688.43 287.44 688.41 287.5C688.41 287.48 688.47 287.38 688.52 287.25C688.52 287.13 688.52 286.99 688.52 286.99C688.52 286.1 688.17 284.62 687.77 283.67C686.95 281.83 685.1 279.98 684.75 279.62C684.14 279.04 682.54 277.64 680.83 276.97C679.9 276.61 678.8 276.38 677.61 276.3C677.06 276.27 676.68 275.8 676.68 275.3L676.68 267.56C676.68 267.31 676.77 267.06 676.97 266.87C677.17 266.7 677.44 266.59 677.7 266.59L689.94 266.64C698.76 266.84 707.96 268.29 710.63 268.71C711.1 268.82 711.45 269.24 711.45 269.71C711.45 270.61 711.53 359.55 711.59 362.29C711.59 362.34 711.77 367.17 714.47 369.26C716.47 370.83 719.63 371.08 720.88 371.11C721.4 371.11 721.87 371.58 721.87 372.12ZM688.9 317.31C688.81 315.97 687.68 309.63 679.99 309.63C672.97 309.63 671.78 316.22 671.78 317.98C671.78 319.13 671.89 355.17 671.87 357.43C671.84 361.03 675.09 365.22 680.57 365.22C685.94 365.22 688.87 360.3 688.9 357.48C688.96 355.33 688.99 318.32 688.9 317.31ZM688.4 287.5C688.4 287.5 688.4 287.5 688.41 287.5C688.4 287.5 688.4 287.5 688.4 287.5Z" />
		<path id="Layer" fill-rule="evenodd" class="shp0" d="M475.86 58.66L489.7 141.77L459.17 141.77L471.86 58.71L475.86 58.66ZM481.31 133.92C481.17 133.17 474.55 83.11 474.5 82.92C474.44 82.72 474.26 82.58 474.09 82.58C473.91 82.58 473.77 82.69 473.71 82.92C473.68 83.14 467.79 132.19 467.53 133.89C467.39 134.98 468.11 135.74 469.04 135.74C469.94 135.74 478.91 135.79 479.98 135.76C481.05 135.74 481.46 134.7 481.31 133.92Z" />
		<path id="Layer" fill-rule="evenodd" class="shp0" d="M544.79 210.47C545.83 211 546.93 211.42 547.6 211.67L547.6 220.1L493.8 225.91L493.8 219.46C494.75 219.07 496.5 218.32 498.18 217.09C500.21 215.58 501.98 213.29 502.62 212.15C503.26 210.92 504.07 208.74 504.24 206.45C504.45 203.35 503.87 200.09 503.84 199.97L497.05 161.11C497.02 160.89 496.84 159.88 495.77 159.19C495.02 158.71 494.17 158.6 493.74 158.6C493.71 158.6 454.53 158.6 454.47 158.6C454.07 158.6 453.28 158.71 452.67 159.13C452.01 159.63 451.8 160.47 451.75 160.89L443.76 211.87C443.74 211.95 443.33 214.24 443.88 216.64C444.46 218.9 445.94 221 446.84 221.83C447.71 222.67 450.06 224.29 452.56 224.9C453.98 225.27 455.4 225.44 456.45 225.46L456.45 231.97L418.43 239.53L418.43 233.84C419.27 233.11 421.3 231.38 423.07 229.29C424.96 227.11 427.25 223.09 427.25 223.09C428.82 220.24 430.42 211.53 430.47 211.17L455.08 50.65C455.11 50.53 455.81 47.04 455.37 43.25C454.97 40.2 453.57 37.19 452.5 35.49C451.48 33.95 449.54 31.83 447.04 30.43C444.66 29.12 442.14 28.39 440.89 28.12L440.95 21.55L528.47 21.55L528.47 28.31L528.3 28.31C527.28 28.31 525.25 28.39 523.28 28.92C520.38 29.65 517.68 31.35 516.55 32.3C515.59 33.11 513.41 35.01 512.43 37.33C511.01 40.54 511.01 42.69 511.01 44.08C511.01 44.84 511.01 46.35 511.35 48.97C511.61 51.04 512.46 55.48 512.46 55.53L535.56 197.66L535.56 197.69C535.58 197.8 536.17 200.39 537.27 202.77C538.17 204.8 539.71 206.54 540.2 207.09C541.01 207.99 542.75 209.41 544.79 210.47ZM494.81 142.1L480.65 57.01C480.33 55.08 478.65 53.66 476.67 53.66L470.99 53.72C469.01 53.72 467.36 55.17 467.07 57.12L454.09 142.16C453.89 143.3 454.24 144.48 454.97 145.37C455.75 146.26 456.85 146.79 458.04 146.79L490.86 146.79C492.02 146.79 493.16 146.26 493.91 145.34C494.66 144.47 495.01 143.28 494.81 142.1Z" />
		<path id="Layer" class="shp0" d="M645.14 30.46C645.17 30.77 645.02 32.44 644.15 32.89C642.76 33.61 641.66 32.64 641.39 32.5L641.33 32.5L641.31 32.47L641.22 32.39C639.74 31.24 632.02 25.38 627.35 23.2C622.73 21.02 618.5 19.52 614.75 18.71C608.69 17.42 602.51 17.31 602.27 17.31L602.13 17.31C599.84 17.31 592.44 17.9 585.85 20.52C581.61 22.22 578.39 24.9 574.91 28C567.71 34.37 566.72 44.45 566.67 44.95L566.7 86.68C566.7 86.74 566.7 91.07 567.68 95.48C568.35 98.69 569.86 102.09 570.99 104.22C572.3 106.56 574.73 109.72 577.11 112.06C579.67 114.57 582.34 116.39 582.43 116.47L613.62 136.29C613.65 136.32 616.93 138.33 619.6 140.48C621.34 141.93 622.7 143.5 623.37 144.47L623.52 144.67C624.19 145.7 625.49 147.54 626.13 149.8C627.09 153.29 627.17 157.34 627.17 157.4L627.17 176.32C627.17 176.55 627.23 182.08 625.84 187.07C625.2 189.33 623.9 191.79 622.36 193.58C620.36 195.93 617.19 199.05 613.33 200.67C609.27 202.37 602.25 202.54 602.19 202.54C599.72 202.54 597.55 202.21 595.57 201.59C591.92 200.45 587.97 197.85 585.01 194.7C582.89 192.41 580.92 188.89 579.87 185.48C578.68 181.58 578.62 178.2 578.62 178.06L578.45 155.5L566.64 155.5L566.52 218.45L578.8 218.45L578.65 209.27C578.62 208.38 578.94 206.73 580.31 206.25C580.54 206.17 580.8 206.11 581.09 206.11C582.31 206.11 583.56 207.01 583.82 207.2C585.44 208.21 593.74 213.29 598.76 215.24C604.19 217.37 611.7 218.62 618.87 218.62C625.29 218.62 630.92 218.01 637.5 215.02C642.09 212.93 646.64 209.35 651.03 204.41C657.73 196.82 658.54 186.1 658.57 185.6L658.57 150.25C658.57 150.23 658.54 146.09 657.59 141.74C656.86 138.36 655.29 134.68 654.16 132.55C653.09 130.49 651.03 127.39 648.62 124.96C645.4 121.7 641.54 119.04 641.42 118.96L610.81 99.86C610.49 99.67 603.2 94.87 601.43 92.35C600.68 91.32 598.76 88.56 597.83 85.9C596.61 82.44 596.5 79.12 596.5 78.98L596.5 54.58C596.5 54.41 596.5 50.62 598.41 46.54C599.34 44.48 601.08 42.21 603.29 40.15C607.12 36.57 613.21 34.17 618.47 34.17C623.72 34.17 634.05 37.1 639.36 44.87L639.45 44.98C641.22 47.63 643.05 50.31 643.95 53.24C646.01 59.75 645.72 66.08 645.69 66.56L645.69 75.63L658.46 75.63L658.46 21.67L645.14 21.67L645.14 30.46L645.14 30.46Z" />
		<path id="Layer" class="shp0" d="M132.37 305.78C132.34 305.95 129.99 322.62 129.21 326.55C128.45 330.52 126.74 334.4 126.19 335.68L126.08 335.99C124.33 340.18 121.29 344.03 116.99 347.49C107.97 354.8 98.13 355.14 98.01 355.14C98.01 355.14 73.46 355.11 73.4 355.11C72.94 355.11 70.56 354.94 70.56 351.62L70.62 44.28L70.62 44.25L70.62 44.23C70.64 43.97 71.28 37.8 76.48 32.95C79.7 29.85 84.52 28.54 86.58 28.09L86.58 21.75L17.51 21.75L17.54 27.86C20.03 28.45 25.26 30.07 28.62 34.03C33.12 39.31 33.27 45.45 33.27 45.51C33.3 57.6 33.91 341.15 33.91 341.57C33.91 341.88 34.22 349.5 30.98 354.19C26.62 360.55 20.76 362.31 18.7 362.79L18.64 370.66L141.83 370.35L150.22 273.84L136.41 273.81L132.37 305.78Z" />
		<path id="Layer" class="shp0" d="M680.8 28.45C681.88 28.73 683.76 29.2 685.65 30.1C688.26 31.33 690.64 33.25 691.6 34.29C692.24 34.93 694.27 37.19 695.23 39.9C696.33 42.94 696.42 46.21 696.42 46.35L696.79 192.32C696.79 192.44 696.71 195.37 695.86 198.38C695.11 200.92 693.66 203.41 692.64 204.58C691.74 205.61 689.39 207.9 686.66 209.24C684.6 210.28 682.54 210.81 681.38 211.09L681.38 218.51C685.36 218.88 703.24 220.61 713.04 221.22C717.31 221.5 720.13 221.83 735.86 223.54L743.26 224.38L743.26 217.65C742.36 217.45 740.85 217.12 739.25 216.39C736.58 215.25 733.71 213.27 732.58 212.09C731.53 211.06 729.56 208.52 728.6 206.2C727.41 203.24 727.32 200.53 727.29 200.23L727.09 130.8C727.06 130.4 727 128.9 727.79 127.95C728.28 127.42 729.18 127.17 730.63 127.17C731.09 127.17 731.47 127.19 731.59 127.22L747.46 127.19C751.35 127.25 754.86 128.9 757.97 132.05C760.78 134.96 762.12 138.03 762.26 138.39C763.08 140.29 763.57 142.19 763.83 143.25L775.27 143.25L775.27 98.5L763.57 98.5C763.4 99.47 762.99 101.12 762.23 102.85C761.19 105.25 759.33 107.79 758.41 108.77C757.27 109.97 755.53 111.64 753.38 112.62C750.95 113.71 748.25 113.88 748.13 113.91L748.1 113.91L729.91 113.91C729.18 113.91 728.28 113.79 727.67 113.35C726.89 112.65 726.95 111.39 726.98 111.06L726.86 39.92C726.8 39.65 726.68 38.31 727.53 37.55C728.11 36.96 729.04 36.85 729.76 36.85C729.85 36.85 729.91 36.85 729.91 36.85L751.88 36.88C751.94 36.88 756.14 36.94 760.32 38.36C763.14 39.28 766.04 41.26 767.63 42.66C769.14 43.94 771.87 47.02 773.24 50.06C774.86 53.77 774.98 57.2 774.98 57.4L774.98 69.54L788.99 69.54L788.99 21.61L680.78 21.61L680.8 28.45Z" />
		<path id="Layer" class="shp0" d="M400.7 162.29L384.44 162.29L384.62 211.81C384.62 211.87 384.62 217.03 383.17 221.97C381.98 226.02 379.45 230.1 377.6 232.05C376.46 233.2 372.43 237.1 367.55 238.92C362.19 240.96 355.95 240.98 355.89 240.98C354.47 240.98 351.65 240.84 348.63 239.84C345.3 238.72 341.67 236.21 339.69 234.34C337.66 232.3 334.73 228.51 333.25 224.85C331.54 220.63 331.39 216.67 331.37 216.5C331.37 216.5 331.66 66.98 331.54 59.61C331.39 50.11 334.24 43.44 340.8 38.03C344.08 35.29 350.37 32.13 357.37 32.13C362.33 32.13 366.94 33.7 371.15 36.8C383.37 45.76 384.15 64.21 384.15 64.43L384.15 89.2L400.2 89.2L400.06 21.8L383.51 21.8L383.51 26.1C383.51 26.27 383.8 28 382.27 28.67C380.44 29.46 378.26 28.23 377.94 28.03C376.37 27.17 372.22 24.85 367.03 22.81C360.44 20.24 352.78 18.34 346.57 17.78C345.41 17.67 344.19 17.62 342.97 17.62C331.22 17.62 320.54 22.75 320.42 22.81C313.63 25.69 305.3 33.14 302.23 39C298.77 45.48 298.51 51.45 298.51 51.48L298.51 222.39C298.51 222.47 298.37 230.74 301.44 238.3C303.88 244.31 309.34 249.47 312.32 252.04C316.42 255.53 325.18 258.43 331.54 259.66C335.66 260.44 339.87 260.86 344.1 260.86C344.57 260.86 347.61 260.83 347.76 260.83C351.47 260.83 358.73 260.5 365.43 258.26C372.34 255.98 379.6 251.4 386.56 245.03C390.62 241.23 395.88 234.31 398.28 227.19C400.98 219.24 400.69 210.8 400.69 210.69L400.69 162.29L400.7 162.29Z" />
		<path id="Layer" class="shp0" d="M984.21 242.63L984.18 242.74C983.4 244.87 979.22 255.64 969.91 259.16C969.33 259.44 966.54 260.56 961.69 260.56C956.15 260.56 950.09 259.13 943.56 256.34L942.05 255.67L942.05 252.38C942.05 250.37 941.9 47.46 942.05 45.06C942.16 42.58 942.66 41.15 943.7 38.84C944.83 36.38 947.24 33.81 948.26 33C951.92 30.04 955.77 28.73 957.46 28.28L957.46 21.64L893.15 21.64L892.89 28.48C895.38 29.34 901.65 31.83 904.09 34.71C905.22 36.04 906.82 38.53 907.54 41.1C908.59 44.62 908.59 48.05 908.59 48.19L908.59 231.3C908.59 231.44 908.47 234.9 907.54 238C906.84 240.51 905.45 242.33 904.44 243.42C903.22 244.76 900.98 246.09 898.75 246.85C896.75 247.52 894.74 247.8 893.61 247.94L893.61 255.64C897.82 256.93 920.02 263.68 935.87 269.07C951.54 274.38 982.53 286.16 988.71 288.5L1003.4 201.57L995.91 201.54C990.31 221.14 984.3 242.3 984.21 242.63Z" />
		<path id="Layer" class="shp0" d="M866.65 239.7C863.78 237.97 860.67 235.26 859.66 233.89C859.08 233.08 857.02 230.27 856.06 227.2C855.01 223.85 855.04 220.52 855.04 220.38L855.01 46.99L855.01 46.96C855.01 46.9 855.33 43.53 856.23 40.4C856.81 38.47 857.83 36.52 858.58 35.46C859.57 34.17 861.72 32.14 863.6 30.77C864.68 29.96 865.69 29.4 866.3 29.09L866.3 21.58L810.32 21.78L810.32 28.7C811.11 29.09 812.41 29.82 813.72 30.77C815.37 31.97 816.91 33.31 817.61 34.23L817.64 34.29C818.36 35.21 819.81 37.08 820.68 39.31C821.67 41.93 821.93 44.81 821.96 45.15L821.96 45.17L822.13 207.79C822.13 207.91 822.13 210.7 821.41 213.63C820.83 216.17 819.52 218.93 818.62 220.1C818.36 220.47 815.84 223.68 812.56 225.46C810.47 226.61 808.26 227.14 807.02 227.36L807.02 234.65C813.05 236.02 863.23 247.55 870.83 249.36L870.8 241.6C869.87 241.29 868.28 240.68 866.65 239.7Z" />
		<path id="Layer" class="shp0" d="M1188.08 361.89C1185.41 360.94 1182.92 359.41 1181.84 358.35C1180.8 357.29 1178.51 354.69 1177.46 352.37C1176.01 349.11 1175.98 346.21 1175.98 346.07L1175.84 46.37C1175.84 46.26 1175.95 43.3 1177.06 40.31C1177.96 37.83 1179.81 35.46 1181.09 34.23C1182.48 32.83 1184.78 31.3 1186.84 30.38C1188.92 29.46 1191.01 28.84 1192.17 28.56L1192.17 21.53L1127.05 21.53L1098.35 160.33L1098.35 160.39L1098.32 160.42C1098.32 160.47 1097.92 161.62 1097.39 162.17C1096.84 162.82 1095.77 162.9 1095.48 162.93L1095.45 162.93L1087.41 162.84L1087.38 162.84L1087.35 162.84C1087.24 162.84 1085.96 162.7 1085.09 161.75C1084.37 160.92 1083.96 159.44 1083.9 159.13L1055.05 21.61L1001.68 21.61L1001.77 28.65C1002.93 28.9 1005.02 29.43 1007.08 30.43C1009.66 31.63 1012.13 33.64 1013.44 35.12C1014.71 36.55 1016.37 39.23 1017.09 42.05C1017.82 44.78 1017.7 47.38 1017.67 47.66L1017.82 268.45C1017.82 268.59 1017.88 271.11 1016.89 273.73C1016.02 276.1 1014.22 278.51 1012.88 279.73C1011.78 280.79 1009.69 282.27 1007.14 283.28C1005.08 284.09 1002.79 284.62 1001.62 284.87L1001.62 293.94C1004 294.95 1012.3 298.58 1022.58 303.27C1032.36 307.76 1043.56 313.01 1047.36 314.8L1047.36 307.73C1046.37 307.31 1044.34 306.34 1042.37 305.11C1040.08 303.71 1037.75 301.76 1036.71 300.39C1035.46 298.74 1033.72 295.92 1032.88 293.36C1031.72 289.92 1031.66 286.68 1031.66 286.52L1031.84 105.11C1031.84 105.05 1031.81 103.69 1032.59 103.02C1033.11 102.51 1033.87 102.43 1034.39 102.43C1034.53 102.43 1034.71 102.43 1034.77 102.46C1035.4 102.43 1044.6 102.43 1044.84 102.43C1045.42 102.43 1045.94 102.57 1046.29 102.85C1046.9 103.35 1047.13 104.41 1047.22 104.83L1085.61 282.3L1122.58 104.91C1122.7 104.47 1122.99 103.38 1123.57 102.85C1123.97 102.51 1124.58 102.37 1125.37 102.37C1125.51 102.37 1125.63 102.37 1125.69 102.37L1135.26 102.46C1135.35 102.43 1135.44 102.43 1135.58 102.43C1136.11 102.43 1136.89 102.54 1137.53 103.07C1138.49 103.97 1138.46 105.42 1138.46 105.56L1138.28 341.82L1138.28 341.93C1138.25 344.58 1137.93 351.12 1135.81 354.36C1133.55 357.85 1129.49 362.2 1122.9 363.29L1122.9 370.69L1192.61 370.69L1192.55 362.98C1191.54 362.84 1189.82 362.48 1188.08 361.89Z" />
	</g>
</svg>